<svg width="65" height="13" viewBox="0 0 65 13" fill="none" xmlns="http://www.w3.org/2000/svg">
<path d="M3.85227 10H0.758523V1.27273H3.87784C4.75568 1.27273 5.51136 1.44744 6.14489 1.79688C6.77841 2.14347 7.26563 2.64205 7.60653 3.29261C7.95028 3.94318 8.12216 4.72159 8.12216 5.62784C8.12216 6.53693 7.95028 7.31818 7.60653 7.97159C7.26563 8.625 6.77557 9.12642 6.13636 9.47585C5.5 9.82528 4.73864 10 3.85227 10ZM2.60369 8.41903H3.77557C4.32102 8.41903 4.77983 8.32244 5.15199 8.12926C5.52699 7.93324 5.80824 7.63068 5.99574 7.22159C6.18608 6.80966 6.28125 6.27841 6.28125 5.62784C6.28125 4.98295 6.18608 4.45597 5.99574 4.04688C5.80824 3.63778 5.52841 3.33665 5.15625 3.14347C4.78409 2.95028 4.32528 2.85369 3.77983 2.85369H2.60369V8.41903ZM12.4379 10.1278C11.7646 10.1278 11.185 9.99148 10.6992 9.71875C10.2163 9.44318 9.84411 9.05398 9.58274 8.55114C9.32138 8.04545 9.1907 7.44744 9.1907 6.7571C9.1907 6.08381 9.32138 5.4929 9.58274 4.98438C9.84411 4.47585 10.212 4.07955 10.6864 3.79545C11.1637 3.51136 11.7234 3.36932 12.3654 3.36932C12.7972 3.36932 13.1992 3.43892 13.5714 3.57812C13.9464 3.71449 14.2731 3.92045 14.5515 4.19602C14.8327 4.47159 15.0515 4.81818 15.2077 5.2358C15.364 5.65057 15.4421 6.13636 15.4421 6.69318V7.19176H9.91513V6.06676H13.7333C13.7333 5.8054 13.6765 5.57386 13.5629 5.37216C13.4492 5.17045 13.2915 5.01278 13.0898 4.89915C12.891 4.78267 12.6594 4.72443 12.3952 4.72443C12.1197 4.72443 11.8754 4.78835 11.6623 4.91619C11.4521 5.04119 11.2873 5.21023 11.168 5.4233C11.0487 5.63352 10.9876 5.8679 10.9847 6.12642V7.19602C10.9847 7.51989 11.0444 7.79972 11.1637 8.03551C11.2859 8.27131 11.4577 8.45312 11.6793 8.58097C11.9009 8.70881 12.1637 8.77273 12.4677 8.77273C12.6694 8.77273 12.854 8.74432 13.0217 8.6875C13.1893 8.63068 13.3327 8.54545 13.4521 8.43182C13.5714 8.31818 13.6623 8.17898 13.7248 8.0142L15.4038 8.125C15.3185 8.52841 15.1438 8.88068 14.8796 9.18182C14.6183 9.48011 14.2802 9.71307 13.8654 9.88068C13.4535 10.0455 12.9776 10.1278 12.4379 10.1278ZM22.0728 5.32102L20.4109 5.4233C20.3825 5.28125 20.3214 5.15341 20.2276 5.03977C20.1339 4.9233 20.0103 4.83097 19.8569 4.76278C19.7063 4.69176 19.5259 4.65625 19.3157 4.65625C19.0344 4.65625 18.7972 4.71591 18.604 4.83523C18.4109 4.9517 18.3143 5.10795 18.3143 5.30398C18.3143 5.46023 18.3768 5.59233 18.5018 5.70028C18.6268 5.80824 18.8413 5.89489 19.1452 5.96023L20.3299 6.19886C20.9663 6.32955 21.4407 6.53977 21.7532 6.82955C22.0657 7.11932 22.2219 7.5 22.2219 7.97159C22.2219 8.40057 22.0955 8.77699 21.8427 9.10085C21.5927 9.42472 21.2489 9.67756 20.8114 9.85938C20.3768 10.0384 19.8754 10.1278 19.3072 10.1278C18.4407 10.1278 17.7504 9.94744 17.2362 9.58665C16.7248 9.22301 16.4251 8.72869 16.337 8.10369L18.1225 8.00994C18.1765 8.27415 18.3072 8.47585 18.5146 8.61506C18.7219 8.75142 18.9876 8.8196 19.3114 8.8196C19.6296 8.8196 19.8853 8.75852 20.0785 8.63636C20.2745 8.51136 20.3739 8.35085 20.3768 8.15483C20.3739 7.99006 20.3043 7.85511 20.168 7.75C20.0316 7.64205 19.8214 7.55966 19.5373 7.50284L18.4038 7.27699C17.7646 7.14915 17.2887 6.92756 16.9762 6.61222C16.6665 6.29687 16.5117 5.89489 16.5117 5.40625C16.5117 4.9858 16.6254 4.62358 16.8526 4.3196C17.0827 4.01562 17.4052 3.78125 17.82 3.61648C18.2376 3.4517 18.7262 3.36932 19.2859 3.36932C20.1126 3.36932 20.7631 3.54403 21.2376 3.89347C21.7148 4.2429 21.9933 4.71875 22.0728 5.32102ZM23.3651 10V3.45455H25.1804V10H23.3651ZM24.277 2.6108C24.0071 2.6108 23.7756 2.52131 23.5824 2.34233C23.392 2.16051 23.2969 1.94318 23.2969 1.69034C23.2969 1.44034 23.392 1.22585 23.5824 1.04688C23.7756 0.865057 24.0071 0.774147 24.277 0.774147C24.5469 0.774147 24.777 0.865057 24.9673 1.04688C25.1605 1.22585 25.2571 1.44034 25.2571 1.69034C25.2571 1.94318 25.1605 2.16051 24.9673 2.34233C24.777 2.52131 24.5469 2.6108 24.277 2.6108ZM29.5835 12.5909C28.9954 12.5909 28.4911 12.5099 28.0707 12.348C27.6531 12.1889 27.3207 11.9716 27.0735 11.696C26.8263 11.4205 26.6658 11.1108 26.592 10.767L28.271 10.5412C28.3221 10.6719 28.4031 10.794 28.5138 10.9077C28.6246 11.0213 28.771 11.1122 28.9528 11.1804C29.1374 11.2514 29.3619 11.2869 29.6261 11.2869C30.021 11.2869 30.3462 11.1903 30.6019 10.9972C30.8604 10.8068 30.9897 10.4872 30.9897 10.0384V8.84091H30.913C30.8335 9.02273 30.7141 9.1946 30.555 9.35653C30.396 9.51847 30.1914 9.65057 29.9414 9.75284C29.6914 9.85511 29.3931 9.90625 29.0465 9.90625C28.555 9.90625 28.1076 9.79261 27.7042 9.56534C27.3036 9.33523 26.984 8.98437 26.7454 8.51278C26.5096 8.03835 26.3917 7.43892 26.3917 6.71449C26.3917 5.97301 26.5124 5.35369 26.7539 4.85653C26.9954 4.35937 27.3164 3.98722 27.717 3.74006C28.1204 3.4929 28.5621 3.36932 29.0423 3.36932C29.4087 3.36932 29.7156 3.43182 29.9627 3.55682C30.2099 3.67898 30.4087 3.83239 30.5593 4.01705C30.7127 4.19886 30.8306 4.37784 30.913 4.55398H30.9812V3.45455H32.7837V10.0639C32.7837 10.6207 32.6474 11.0866 32.3746 11.4616C32.1019 11.8366 31.7241 12.1179 31.2411 12.3054C30.761 12.4957 30.2085 12.5909 29.5835 12.5909ZM29.6218 8.54261C29.9144 8.54261 30.1616 8.47017 30.3633 8.32528C30.5678 8.17756 30.7241 7.96733 30.832 7.6946C30.9428 7.41903 30.9982 7.08949 30.9982 6.70597C30.9982 6.32244 30.9442 5.99006 30.8363 5.70881C30.7283 5.42472 30.5721 5.20455 30.3675 5.0483C30.163 4.89205 29.9144 4.81392 29.6218 4.81392C29.3235 4.81392 29.0721 4.89489 28.8675 5.05682C28.663 5.21591 28.5082 5.4375 28.4031 5.72159C28.2979 6.00568 28.2454 6.33381 28.2454 6.70597C28.2454 7.08381 28.2979 7.41051 28.4031 7.68608C28.511 7.95881 28.6658 8.17045 28.8675 8.32102C29.0721 8.46875 29.3235 8.54261 29.6218 8.54261ZM36.0437 6.21591V10H34.2283V3.45455H35.9585V4.60938H36.0352C36.18 4.22869 36.4229 3.92756 36.7638 3.70597C37.1048 3.48153 37.5181 3.36932 38.0039 3.36932C38.4585 3.36932 38.8548 3.46875 39.1928 3.66761C39.5309 3.86648 39.7937 4.15057 39.9812 4.51989C40.1687 4.88636 40.2624 5.32386 40.2624 5.83239V10H38.4471V6.15625C38.4499 5.75568 38.3477 5.44318 38.1403 5.21875C37.9329 4.99148 37.6474 4.87784 37.2837 4.87784C37.0394 4.87784 36.8235 4.9304 36.636 5.03551C36.4513 5.14062 36.3065 5.29403 36.2013 5.49574C36.0991 5.6946 36.0465 5.93466 36.0437 6.21591ZM47.4279 10.1278C46.7575 10.1278 46.1808 9.9858 45.6978 9.7017C45.2177 9.41477 44.8484 9.01705 44.5898 8.50852C44.3342 8 44.2063 7.41477 44.2063 6.75284C44.2063 6.08239 44.3356 5.49432 44.5941 4.98864C44.8555 4.48011 45.2262 4.08381 45.7063 3.79972C46.1864 3.51278 46.7575 3.36932 47.4194 3.36932C47.9904 3.36932 48.4904 3.47301 48.9194 3.6804C49.3484 3.88778 49.6879 4.17898 49.9379 4.55398C50.1879 4.92898 50.3256 5.36932 50.3512 5.875H48.6381C48.5898 5.5483 48.462 5.28551 48.2546 5.08665C48.0501 4.88494 47.7816 4.78409 47.4492 4.78409C47.168 4.78409 46.9222 4.8608 46.712 5.0142C46.5046 5.16477 46.3427 5.38494 46.2262 5.67472C46.1097 5.96449 46.0515 6.31534 46.0515 6.72727C46.0515 7.14489 46.1083 7.5 46.2219 7.79261C46.3384 8.08523 46.5018 8.30824 46.712 8.46165C46.9222 8.61506 47.168 8.69176 47.4492 8.69176C47.6566 8.69176 47.8427 8.64915 48.0075 8.56392C48.1751 8.47869 48.3129 8.35511 48.4208 8.19318C48.5316 8.02841 48.604 7.83097 48.6381 7.60085H50.3512C50.3228 8.10085 50.1864 8.54119 49.9421 8.92188C49.7006 9.29972 49.3668 9.59517 48.9407 9.80824C48.5146 10.0213 48.0103 10.1278 47.4279 10.1278ZM53.38 10.1236C52.9624 10.1236 52.5902 10.0511 52.2635 9.90625C51.9368 9.75852 51.6783 9.54119 51.4879 9.25426C51.3004 8.96449 51.2067 8.60369 51.2067 8.17188C51.2067 7.80824 51.2734 7.50284 51.407 7.25568C51.5405 7.00852 51.7223 6.80966 51.9524 6.65909C52.1825 6.50852 52.4439 6.39489 52.7365 6.31818C53.032 6.24148 53.3416 6.1875 53.6655 6.15625C54.0462 6.11648 54.353 6.07955 54.5859 6.04545C54.8189 6.00852 54.9879 5.95455 55.093 5.88352C55.1982 5.8125 55.2507 5.70739 55.2507 5.56818V5.54261C55.2507 5.27273 55.1655 5.06392 54.995 4.91619C54.8274 4.76847 54.5888 4.6946 54.2791 4.6946C53.9524 4.6946 53.6925 4.76705 53.4993 4.91193C53.3061 5.05398 53.1783 5.23295 53.1158 5.44886L51.4368 5.3125C51.522 4.91477 51.6896 4.57102 51.9396 4.28125C52.1896 3.98864 52.5121 3.7642 52.907 3.60795C53.3047 3.44886 53.7649 3.36932 54.2876 3.36932C54.6513 3.36932 54.9993 3.41193 55.3317 3.49716C55.6669 3.58239 55.9638 3.71449 56.2223 3.89347C56.4837 4.07244 56.6896 4.30256 56.8402 4.58381C56.9908 4.86222 57.0661 5.19602 57.0661 5.58523V10H55.3445V9.09233H55.2933C55.1882 9.29688 55.0476 9.47727 54.8714 9.63352C54.6953 9.78693 54.4837 9.90767 54.2365 9.99574C53.9893 10.081 53.7038 10.1236 53.38 10.1236ZM53.8999 8.87074C54.1669 8.87074 54.4027 8.81818 54.6072 8.71307C54.8118 8.60511 54.9723 8.46023 55.0888 8.27841C55.2053 8.09659 55.2635 7.89062 55.2635 7.66051V6.96591C55.2067 7.00284 55.1286 7.03693 55.0291 7.06818C54.9325 7.09659 54.8232 7.12358 54.701 7.14915C54.5788 7.17187 54.4567 7.19318 54.3345 7.21307C54.2124 7.23011 54.1016 7.24574 54.0021 7.25994C53.7891 7.29119 53.603 7.34091 53.4439 7.40909C53.2848 7.47727 53.1612 7.5696 53.0732 7.68608C52.9851 7.79972 52.9411 7.94176 52.9411 8.11222C52.9411 8.35938 53.0305 8.5483 53.2095 8.67898C53.3913 8.80682 53.6214 8.87074 53.8999 8.87074ZM60.8864 10.1065C60.3892 10.1065 59.9389 9.97869 59.5355 9.72301C59.1349 9.46449 58.8168 9.08523 58.581 8.58523C58.348 8.08239 58.2315 7.46591 58.2315 6.7358C58.2315 5.9858 58.3523 5.36222 58.5938 4.86506C58.8352 4.36506 59.1563 3.99148 59.5568 3.74432C59.9602 3.49432 60.402 3.36932 60.8821 3.36932C61.2486 3.36932 61.554 3.43182 61.7983 3.55682C62.0455 3.67898 62.2443 3.83239 62.3949 4.01705C62.5483 4.19886 62.6648 4.37784 62.7443 4.55398H62.7997V1.27273H64.6108V10H62.821V8.9517H62.7443C62.6591 9.13352 62.5384 9.31392 62.3821 9.4929C62.2287 9.66903 62.0284 9.81534 61.7812 9.93182C61.5369 10.0483 61.2386 10.1065 60.8864 10.1065ZM61.4616 8.66193C61.7543 8.66193 62.0014 8.58239 62.2031 8.4233C62.4077 8.26136 62.5639 8.03551 62.6719 7.74574C62.7827 7.45597 62.8381 7.11648 62.8381 6.72727C62.8381 6.33807 62.7841 6 62.6761 5.71307C62.5682 5.42614 62.4119 5.20455 62.2074 5.0483C62.0028 4.89205 61.7543 4.81392 61.4616 4.81392C61.1634 4.81392 60.9119 4.89489 60.7074 5.05682C60.5028 5.21875 60.348 5.44318 60.2429 5.73011C60.1378 6.01705 60.0852 6.34943 60.0852 6.72727C60.0852 7.10795 60.1378 7.4446 60.2429 7.73722C60.3509 8.02699 60.5057 8.25426 60.7074 8.41903C60.9119 8.58097 61.1634 8.66193 61.4616 8.66193Z" fill="url(#paint0_linear_608_714)"/>
<defs>
<linearGradient id="paint0_linear_608_714" x1="57.2292" y1="10.375" x2="7.83581" y2="-8.87429" gradientUnits="userSpaceOnUse">
<stop stop-color="white"/>
<stop offset="1" stop-color="#F7E821"/>
</linearGradient>
</defs>
</svg>
